<svg width="10" height="11" viewBox="0 0 10 11" fill="none" xmlns="http://www.w3.org/2000/svg">
<path fill-rule="evenodd" clip-rule="evenodd" d="M4.99998 6.44267L8.77132 10.214C8.89705 10.3354 9.06545 10.4026 9.24025 10.4011C9.41505 10.3996 9.58226 10.3295 9.70586 10.2059C9.82947 10.0823 9.89958 9.91507 9.9011 9.74027C9.90262 9.56547 9.83542 9.39707 9.71398 9.27133L5.94265 5.5L9.71398 1.72867C9.83542 1.60293 9.90262 1.43453 9.9011 1.25973C9.89958 1.08493 9.82947 0.917727 9.70586 0.794121C9.58226 0.670516 9.41505 0.600403 9.24025 0.598884C9.06545 0.597365 8.89705 0.664561 8.77132 0.786L4.99998 4.55733L1.22865 0.786C1.10235 0.667563 0.934926 0.60291 0.761804 0.605722C0.588682 0.608533 0.423445 0.678588 0.301057 0.801063C0.178668 0.923538 0.10873 1.08882 0.106042 1.26195C0.103353 1.43507 0.168124 1.60245 0.28665 1.72867L4.05732 5.5L0.285984 9.27133C0.22231 9.33283 0.171522 9.40639 0.136583 9.48773C0.101644 9.56907 0.0832529 9.65655 0.0824837 9.74507C0.0817145 9.83359 0.0985821 9.92137 0.132103 10.0033C0.165623 10.0852 0.215125 10.1597 0.27772 10.2223C0.340316 10.2849 0.41475 10.3344 0.496681 10.3679C0.578612 10.4014 0.666398 10.4183 0.754918 10.4175C0.843437 10.4167 0.930918 10.3983 1.01225 10.3634C1.09359 10.3285 1.16715 10.2777 1.22865 10.214L4.99998 6.44267Z" fill="#323749"/>
</svg>
